<svg id="Camada_1" data-name="Camada 1" xmlns="http://www.w3.org/2000/svg" viewBox="0 0 635.73 820.33"><title>hestia_logo</title><path d="M993.41,459.86c-35-35.88,9.12-48.24-7.92-83.49-12.21-25.26-39.61-19.23-59.56-42.33-12.86-14.88-63-64.71-100.7-37.08C814,248.31,722.28,215,672,235.79c-32.23,13.3-29.72,23.5-69.86,26.21-47.33,3.19-62.65,1.33-80.53,37.49-18.36,37.13-28.93,33.09-66.51,59.29-53.11,37-14.92,58.59-3.76,99.27,16.12,58.8-82.31,67.13-21.1,128,16.76,16.66,60.47,28.1,36.55,60C432,692.38,489.49,725.87,528,733.5c33.93,6.73,293.45,67.79,364.2-20.14,18.47-23-5.34-42.69,10-58.21,9.5-9.62,23.94-14.38,34.19-23.22,14-12.1,17-30.46,16.32-46.61-.61-14.56-5.16-29.7,11.69-39.33C1014.14,517.57,1010.85,477.74,993.41,459.86Z" transform="translate(-409.91 -225.69)" style="fill:#1b1518"/><path d="M1034.76,476.27c-31.5-35.67,8.54-48.27-6.69-83.42-10.91-25.18-35.75-19-53.69-42-11.55-14.81-56.69-64.34-91-36.5C873.56,265.81,790.7,233.06,745,254.1c-29.25,13.47-27,23.66-63.38,26.59-42.88,3.46-56.73,1.68-73.13,37.93-16.82,37.23-26.37,33.25-60.54,59.65-48.29,37.31-13.84,58.65-4,99.26,14.27,58.69-74.89,67.57-19.83,128.07,15.09,16.57,54.59,27.76,32.76,59.77-31.74,46.52,20.14,79.68,55,87.09,30.68,6.53,265.28,66.1,329.82-22.21,16.86-23-4.59-42.64,9.38-58.24,8.67-9.67,21.76-14.51,31.1-23.41,12.76-12.17,15.55-30.54,15-46.68-.47-14.55-4.5-29.66,10.81-39.38C1053.21,533.85,1050.45,494,1034.76,476.27Z" transform="translate(-409.91 -225.69)" style="fill:#1b1518;stroke:#231f20;stroke-miterlimit:10"/><path d="M1013.92,453.72c-36.48-36,6.13-52-12.67-88.48-13.46-26.14-40-18-60.94-41.31-13.49-15-65.65-64.95-101-33.1-13.85-51.14-105.84-80.76-154-55.42-30.85,16.22-27.79,26.94-67,32.38-46.27,6.42-61.41,5.41-76.83,45.08C525.6,353.62,515,350,479.64,380.3c-49.95,42.84-11.2,63.39,2.14,106,19.27,61.64-76.84,76.79-13.2,137.75,17.44,16.7,61,26.11,39.4,61.62-31.4,51.6,27,83.63,65.24,89.3,33.69,5,292,53.54,356.24-44.68,16.79-25.65-7.74-45.16,6.4-62.67,8.76-10.86,22.65-16.85,32.2-26.93C981.11,627,983,607.18,981.34,590c-1.46-15.48-6.81-31.32,9.16-42.66C1037.66,513.9,1032.09,471.66,1013.92,453.72Z" transform="translate(-409.91 -225.69)" style="fill:#231f20;stroke:#1b1518;stroke-miterlimit:10"/><path d="M554.5,940.85v.59c-.1,7.49-.3,15.2-.9,22.69a221,221,0,0,1-3,26.86c-.51,2.89-1,5.7-1.6,8.39-2.09-1.09-4.19-2.3-6.19-3.49-5-2.9-9.89-5.89-14.79-9.09-8.68-5.5-17.08-11.49-25.37-17.77a426.81,426.81,0,0,1-45.15-40c9-27.27,23-49.46,45.95-67.42,10.59-8.39,23.17-15.78,38.06-22.38a.32.32,0,0,1,.2-.09c2-1,4.09-1.82,6.2-2.71L550.1,862A683.27,683.27,0,0,1,554.5,940.85Z" transform="translate(-409.91 -225.69)" style="fill:#6c4326"/><path d="M977.92,929.07a418.91,418.91,0,0,1-45.25,40.06q-11.83,9-24.26,17.07c-5.2,3.39-10.4,6.59-15.69,9.59l-6.29,3.59c-.6-2.69-1.11-5.5-1.6-8.39a225,225,0,0,1-3-26.86c-.5-7-.8-14-.8-21a12.13,12.13,0,0,1-.09-1.81,695.38,695.38,0,0,1,4.38-79.3l2.21-25.57c2.18.89,4.39,1.81,6.48,2.9a.52.52,0,0,1,.41.2c14.68,6.49,27.06,13.79,37.55,22.08C955,879.61,968.93,901.8,977.92,929.07Z" transform="translate(-409.91 -225.69)" style="fill:#6c4326"/><path d="M853.21,541c36.06-35.88,41.13,18.34,31.47,44.7-15.91,43.42-50.65,51.83-92.49,45Z" transform="translate(-409.91 -225.69)" style="fill:#764929"/><path d="M582.22,541c-36.06-35.88-41.13,18.34-31.47,44.7,15.92,43.42,50.64,51.83,92.49,45Z" transform="translate(-409.91 -225.69)" style="fill:#764929"/><path d="M937.64,898.37c0,54.56-98.44,98.79-219.92,98.79s-219.91-44.23-219.91-98.79c0-27,24.17-51.55,63.33-69.36,26-11.84,99-28.89,99.15-40,.05-2.86.13-9.71.19-18.36.41-24.77.9-64,.9-64H772s.68,13.62,1.43,30c1,21.17,2.12,47,2.25,53.82.22,12,72.3,26.69,98.26,38.4C913.27,846.69,937.64,871.27,937.64,898.37Z" transform="translate(-409.91 -225.69)" style="fill:#53341a"/><path d="M773.39,736.58c-25.33,46.62-65.93,71.75-93.11,57.92-7.13-3.55-15.27-12.17-19.73-22.32l-.07-1.58c.41-24.77.9-64,.9-64H772S772.64,720.21,773.39,736.58Z" transform="translate(-409.91 -225.69)" style="fill:#664023"/><path d="M856.85,569.64c0,100.92-92.75,182.72-139.13,182.72s-139.14-81.8-139.14-182.72,9.84-199.56,139.14-199.56S856.85,468.74,856.85,569.64Z" transform="translate(-409.91 -225.69)" style="fill:#53341a"/><path d="M736.84,629c0,5.63-8.56,10.17-19.13,10.17s-19.12-4.54-19.12-10.17,8.56-3.93,19.12-3.93S736.84,623.37,736.84,629Z" transform="translate(-409.91 -225.69)" style="fill:#764929"/><path d="M682.51,576.34c-8.7-28.7-44.39-55.85-76.24-40.86-20,9.45-15.45,30.6-2.63,39.44C623.83,588.86,651.9,587,675,579.68Z" transform="translate(-409.91 -225.69)" style="fill:#ab47bc;opacity:0.35000000000000003"/><path d="M755.57,575.65c8.69-27.6,44.39-53.72,76.23-39.3,20.07,9.09,15.45,29.43,2.66,37.94-20.21,13.4-48.28,11.61-71.37,4.57Z" transform="translate(-409.91 -225.69)" style="fill:#ab47bc;opacity:0.35000000000000003"/><path d="M752.55,579.33c8.69-27.61,44.39-53.72,76.23-39.3,20.06,9.09,15.45,29.43,2.66,37.93-20.21,13.4-48.29,11.62-71.38,4.57Z" transform="translate(-409.91 -225.69)"/><path d="M759.49,579.89c17.46,23.05,65.59,17.36,70.92-.82,1.78-6.11-1.25-13.47-3.91-15.13Z" transform="translate(-409.91 -225.69)"/><path d="M785.81,592a7.67,7.67,0,0,1-1.51-.1c-11.68-1.5-28.06-11-28.06-11.09,2-7.69,8.19-15.48,16.38-21.47a27.08,27.08,0,0,0-1.6,9.09A26.06,26.06,0,0,0,785.81,592Z" transform="translate(-409.91 -225.69)" style="fill:#eaedef"/><path d="M833.75,570.28c-1.9,9.9-10.19,16.09-20.47,19.28a26.5,26.5,0,0,0,2.69-40C828.36,552.5,835.45,561,833.75,570.28Z" transform="translate(-409.91 -225.69)" style="fill:#eaedef"/><path d="M823.86,568.39a26.45,26.45,0,0,1-10.58,21.17h-.11a68.57,68.57,0,0,1-27.36,2.4A26.06,26.06,0,0,1,771,568.39a27.08,27.08,0,0,1,1.6-9.09,60.08,60.08,0,0,1,18.19-8.89c9.58-2.6,18.16-2.6,25.16-.9A26.35,26.35,0,0,1,823.86,568.39Z" transform="translate(-409.91 -225.69)" style="fill:#112b20"/><path d="M829.74,569.21a6.76,6.76,0,1,1-6.75-6.76A6.75,6.75,0,0,1,829.74,569.21Z" transform="translate(-409.91 -225.69)" style="fill:#fff"/><path d="M684.74,579.32c-8.7-27.6-44.39-53.71-76.24-39.3-20,9.09-15.45,29.43-2.63,37.94,20.19,13.4,48.26,11.62,71.35,4.57Z" transform="translate(-409.91 -225.69)"/><path d="M677.79,579.89c-17.46,23.05-65.58,17.36-70.93-.82-1.77-6.11,1.25-13.47,3.94-15.13Z" transform="translate(-409.91 -225.69)"/><path d="M624,589.57c-10.28-3.2-18.57-9.4-20.37-19.29-1.69-9.28,5.4-17.77,17.68-20.77A26.51,26.51,0,0,0,624,589.57Z" transform="translate(-409.91 -225.69)" style="fill:#eaedef"/><path d="M681.1,580.78c0,.1-16.48,9.58-28.16,11.08a6.7,6.7,0,0,1-1.41.1,26.11,26.11,0,0,0,14.7-23.57,25.11,25.11,0,0,0-1.7-9.09C672.72,565.2,679.1,573,681.1,580.78Z" transform="translate(-409.91 -225.69)" style="fill:#eaedef"/><path d="M666.23,568.39A26.11,26.11,0,0,1,651.53,592a69.17,69.17,0,0,1-27.47-2.39H624a26.51,26.51,0,0,1-2.69-40.06c6.89-1.71,15.58-1.71,25.16.9a54.48,54.48,0,0,1,18.1,8.89A25.11,25.11,0,0,1,666.23,568.39Z" transform="translate(-409.91 -225.69)" style="fill:#112b20"/><path d="M672,569.21a6.76,6.76,0,1,1-6.75-6.76A6.75,6.75,0,0,1,672,569.21Z" transform="translate(-409.91 -225.69)" style="fill:#fff"/><path d="M592,501.19c12.07-10.42,26.24-17.62,42.18-17.7,15.78-.08,28.81,10.17,43.83,13.33,9.95,2.11,6,18-4,15.86-13.25-2.85-24.73-10.76-38.13-13.14a82.88,82.88,0,0,0-43.37,4.4c-1.53.6-1.27-2.11-.54-2.75Z" transform="translate(-409.91 -225.69)" style="fill:#231f20"/><path d="M846.5,494.15c-13.17-9-28.06-14.51-43.92-12.8-15.68,1.71-27.47,13.37-42,18.22-9.66,3.23-3.95,18.56,5.73,15.31,12.86-4.34,23.36-13.51,36.39-17.38a82.76,82.76,0,0,1,43.59-.55c1.6.42,1-2.24.23-2.8Z" transform="translate(-409.91 -225.69)" style="fill:#231d20"/><path d="M807.72,355.8c-19.41,55.22-68.23,57.32-118.08,56.91-18.58-.15-39.82,5.87-52.23,21-7.79,9.47-7.66,22.34-15.64,31.42-8.17,9.29-22,10.2-29.48,20.67-6.13,8.63-6.64,21.32-7.39,31.49-2.55,34.56-5.68,47.8-33.58,70.2-22.36,17.94-33.54,46.37-21.88,74.69-13.13-18.83-19.44-38.69-14.53-61.37,7.48-34.51,3.62-62.82,4.69-98.4,2.21-72.77,63.49-135,130.59-158,45.82-15.68,93-11.5,138.7,1.54Z" transform="translate(-409.91 -225.69)" style="fill:#231f20"/><path d="M816.65,366.62c-45.75,26-24.87,81.41,1.87,112.81,18.61,21.86,28.15,27.44,23.48,56-4.16,25.5,1.08,32,16.91,51.77,26.77,33.54,7.23,58.25-6.33,92.38,23.14-7.26,45.21-42.32,56.32-62.75,14.65-26.94,17.37-60.78,13.35-91-5.1-38.38-15.82-84.46-43.46-112.37-12.59-12.72-38.33-22-44.3-39Z" transform="translate(-409.91 -225.69)" style="fill:#231d20"/><path d="M767.7,312.15c-31.24,15.52-26.77,73.1-.3,90.91-52.66,23.25-115.67-21.28-146.32,45.76-3.68,8-4.06,18.83-10.44,25.39C602.13,482.94,589,480.75,579,486c-18.66,9.7-21.44,32-23.79,52.06-1.4,12,2.39,25.51-8.8,34.11-9.65,7.42-29.88-37.2-29-57.85,1.26-30.3,9.62-60.49,35-76.84,13.17-8.48,14.09-4.89,18.44-21.14,5-18.73,5-35.09,18.42-51.27s21.84-11.67,39.92-15.75c21.28-4.81,28-20.6,43.73-33,21.38-16.86,52-13.69,78-13Z" transform="translate(-409.91 -225.69)" style="fill:#231d20"/><path d="M766,671.34c-.66,1.48-1.49,3.21-2.4,5.2L762,679.59c-.58,1.07-1.15,2.15-1.82,3.3a86.19,86.19,0,0,1-6.35,9.74c-.09.09-.09.17-.17.25a2.74,2.74,0,0,1-.49.66c-8.09,10.74-19.57,20.73-34.35,20.73-25.26,0-41.77-29.56-47.72-41.78.25,0,1.16-.25,2.64-.58,7.69-1.49,29.81-5.86,43.18-5.36,15-.58,39.22,3.21,46.81,4.46C765,671.17,765.78,671.34,766,671.34Z" transform="translate(-409.91 -225.69)" style="fill:#721716"/><path d="M761.44,672.14c-1.08,2.06-2.31,4.13-3.63,6.19,0,0,0,.17-.09.17-9.16,14.61-22.78,29.8-40.2,29.8-16.1,0-27.82-12-36.5-25-2.06-3.15-4-6.36-5.69-9.5.66,1.24,21.55,3.22,42.19,2.81C739.31,676.1,760.94,673.13,761.44,672.14Z" transform="translate(-409.91 -225.69)" style="fill:#44060f"/><path d="M727.3,706.66c9.23-2.61,16-8.1,23.19-13.63a30.36,30.36,0,0,0-3.58-4c-5.78-4.95-14.12-8.09-23.45-8.09-12.47,0-23.2,5.53-28.23,13.71a19.67,19.67,0,0,0-2.47,5.67C701.54,708.29,716.62,709.69,727.3,706.66Z" transform="translate(-409.91 -225.69)" style="fill:#750414"/><path d="M761.44,672.14c-1.08,2.06-8.86,8.72-13.9,11.13-8.46,4.06-19.64,6.62-32.17,6.62-13.45,0-33.14-6.21-40-16.1.8,1.15,21.55,3.22,42.19,2.81C739.31,676.1,760.94,673.13,761.44,672.14Z" transform="translate(-409.91 -225.69)" style="fill:#f4f4f4"/><path d="M717.52,676.6c-20.64.41-41.39-1.66-42.19-2.81,3.81,5.46,11.54,9.74,19.95,12.53,8.7-6.54,22.79-7.77,32.59-7.5,7.08.19,13.52,1.67,18.63,4.87.33-.15.72-.26,1-.42,5-2.41,12.82-9.07,13.9-11.13C760.94,673.13,739.31,676.1,717.52,676.6Z" transform="translate(-409.91 -225.69)" style="fill:#eaedef"/><path d="M766,671.34c-.66,1.48-1.49,3.21-2.4,5.2L762,679.59c-.58,1.07-1.15,2.15-1.82,3.3-1.81,2.73-3.79,5.87-6.35,9.74-.09.09-.09.17-.17.25a2.74,2.74,0,0,1-.49.66c-8.09,10.74-19.57,20.73-34.35,20.73-25.26,0-41.77-29.56-47.72-41.78.25,0,1.16-.25,2.64-.58a12.6,12.6,0,0,1,1.57,1.9A87.84,87.84,0,0,0,687.6,688c2.31,2.15,4.87,4.46,7.59,6.69a69.32,69.32,0,0,0,9.33,6.11,32.11,32.11,0,0,0,7.35,2.81c6.85,1.73,13.45-.09,19.48-3.31a66.2,66.2,0,0,0,8.17-5.12,73.61,73.61,0,0,0,7.35-6.1,87.4,87.4,0,0,0,13.38-15.28,10.15,10.15,0,0,1,3.46-2.8C765,671.17,765.78,671.34,766,671.34Z" transform="translate(-409.91 -225.69)" style="fill:#b21715"/><polygon points="351.72 446.45 356.11 445.65 349.13 444.58 351.72 446.45" style="fill:#ac2436"/><polygon points="261.17 446.8 265.42 445.92 267.47 448.6 261.17 446.8" style="fill:#ac2436"/><path d="M980.75,931.48a430.55,430.55,0,0,1-45.47,40.08q-11.88,8.94-24.44,17c-5.18,3.39-10.44,6.63-15.77,9.65l-6.3,3.53a356.32,356.32,0,0,1-73.08,30.5,345.2,345.2,0,0,1-193.05,0,356.4,356.4,0,0,1-73.09-30.5c-2.15-1-4.22-2.28-6.22-3.46-5-2.87-9.92-5.89-14.88-9.06-8.74-5.52-17.18-11.56-25.48-17.82h-.07a434.07,434.07,0,0,1-45.39-39.93c1.11-3.46,2.29-6.77,3.62-10,1-2.58,2.08-5.08,3.19-7.51.07-.15.15-.37.23-.52,1.25-2.65,2.59-5.3,4-7.88a2.49,2.49,0,0,1,.29-.52c1.19-2.2,2.45-4.41,3.79-6.55.21-.44.51-.81.73-1.18,0,0,.23-.37.67-1A128.91,128.91,0,0,1,503.71,864,148.89,148.89,0,0,1,524,850.62c1.78-.23,3.56-.37,5.41-.59,6.37-.67,13-1.33,19.77-1.84,127.51-10.69,327-.52,358.18.81h.08c2.58.14,4,.14,4.07.14a152.4,152.4,0,0,1,23,14.88C957.64,882,971.71,904.16,980.75,931.48Z" transform="translate(-409.91 -225.69)" style="fill:#a0221d"/><path d="M935.28,971.56q-11.88,8.94-24.44,17c-2.07-10.38-6.07-20.92-10.88-30.93-2.74-5.61-5.63-11-8.59-16.21,14.74-17.09,31.17-62.83,33.17-65.77a55.07,55.07,0,0,0-.88,7.07c-.45,3.46-.75,7.07-1,10.76-.81,16.27.08,33.58,3.85,49.49a75,75,0,0,0,2.22,9.13,1.92,1.92,0,0,0,.23,1c.89,3.09,1.77,6.19,2.74,9.28A47.4,47.4,0,0,0,935.28,971.56Z" transform="translate(-409.91 -225.69)" style="fill:#721716"/><path d="M547,942a153.87,153.87,0,0,0-7.93,16,198.45,198.45,0,0,0-10.66,31.23c-8.74-5.52-17.18-11.56-25.48-17.82a306.58,306.58,0,0,0,28.59-18.27C536.82,949.61,541.92,945.85,547,942Z" transform="translate(-409.91 -225.69)" style="fill:#721716"/></svg>