<?xml version="1.0" encoding="utf-8"?>
<!-- Generator: Adobe Illustrator 23.0.2, SVG Export Plug-In . SVG Version: 6.00 Build 0)  -->
<svg version="1.1" id="Camada_1" xmlns="http://www.w3.org/2000/svg" xmlns:xlink="http://www.w3.org/1999/xlink" x="0px" y="0px"
	 viewBox="0 0 143.2 136.5" style="enable-background:new 0 0 143.2 136.5;" xml:space="preserve">
<style type="text/css">
	.st0{stroke:#FFFFFF;stroke-miterlimit:10;}
	.st1{fill:#E74C3C;}
	.st2{fill:#FFFFFF;}
</style>
<title>Asset 1</title>
<g>
	<polygon class="st0" points="107.4,0 35.8,0 0,62 35.8,124 107.4,124 143.2,62 	"/>
	<polygon class="st1" points="36.1,19.6 4.1,75 36.1,130.4 36.1,136.5 36.1,136.5 0.6,75 36.1,13.5 36.1,13.5 	"/>
	<polygon class="st1" points="142.6,75 107.1,136.5 107.1,136.5 107.1,130.3 139,75 107.1,19.7 107.1,13.5 107.1,13.5 	"/>
	<path class="st2" d="M43.9,24.3h7.7v60.2h-7.7V24.3z M43.9,94.7h7.7v7.7h-7.7V94.7z"/>
	<path class="st2" d="M63.5,24.3h7.7v78.1h-7.7V24.3z M67.7,95.2h19c1.6,0.1,3.2-0.5,4.3-1.7c1.1-1.3,1.6-3,1.5-4.7V37.9
		c0.1-1.7-0.4-3.4-1.5-4.7c-1.1-1.2-2.7-1.8-4.3-1.7h-19v-7.2h18.7c2.6-0.1,5.2,0.5,7.5,1.6c2,1.1,3.7,2.7,4.7,4.8
		c1.1,2.4,1.7,5,1.6,7.6v50.1c0.1,2.6-0.5,5.3-1.6,7.6c-1.1,2-2.7,3.7-4.8,4.8c-2.3,1.2-4.9,1.7-7.5,1.6H67.7V95.2z"/>
</g>
</svg>
